<?xml version="1.0" encoding="UTF-8"?><svg id="a" xmlns="http://www.w3.org/2000/svg" width="160" height="160" viewBox="0 0 160 160"><path d="m79.41,51.66c4.11,0,8.01.89,11.52,2.47l8.72-15.11c-6.1-3.05-12.98-4.77-20.25-4.77-6.46,0-12.61,1.36-18.18,3.8l8.79,15.22c2.94-1.04,6.1-1.61,9.39-1.61Z" fill="#13dd63"/><path d="m62.48,57.33l-8.73-15.13c-10.86,7.45-18.35,19.48-19.64,33.28h17.52c1.13-7.39,5.14-13.84,10.85-18.15Z" fill="#13dd63"/><path d="m51.63,84.03h-17.52c1.27,13.59,8.55,25.45,19.14,32.92l8.75-15.15c-5.45-4.31-9.27-10.59-10.37-17.77Z" fill="#13dd63"/><path d="m106.92,43.55l-8.81,15.25c5.05,4.51,8.45,10.81,9.22,17.9h17.46c-.9-13.51-7.71-25.42-17.88-33.16Z" fill="#13dd63"/><path d="m80,0C53.61,0,30.2,12.79,15.63,32.5H0v21h4.51C1.6,61.8,0,70.71,0,80s1.6,18.2,4.51,26.5H0v21h15.63c14.57,19.71,37.97,32.5,64.37,32.5,44.18,0,80-35.82,80-80S124.18,0,80,0Zm67.15,85.26h-15.2c-1.65,15.84-10.32,29.62-22.84,38.17l7.65,13.25c.52.9.21,2.06-.69,2.58l-4.14,2.39c-.9.52-2.06.21-2.58-.69l-7.68-13.3c-6.77,3.16-14.31,4.94-22.27,4.94s-15.61-1.8-22.42-5.01l-7.36,12.75c-.52.9-1.67,1.21-2.58.69l-4.14-2.39c-.9-.52-1.21-1.67-.69-2.58l7.35-12.73c-12.77-8.77-21.5-23-22.81-39.3h-13.88c-1.04,0-1.89-.84-1.89-1.89v-4.78c0-1.04.84-1.89,1.89-1.89h13.88c1.33-16.51,10.27-30.9,23.31-39.64l-6.8-11.78c-.52-.9-.21-2.06.69-2.58l4.14-2.39c.9-.52,2.06-.21,2.58.69l6.87,11.89c6.67-3.04,14.06-4.75,21.86-4.75,8.61,0,16.73,2.08,23.92,5.75l7.09-12.27c.52-.9,1.67-1.21,2.58-.69l4.14,2.39c.9.52,1.21,1.67.69,2.58l-7.21,12.48c12.33,9.06,20.61,23.33,21.54,39.55h15.01c1.04,0,1.89.84,1.89,1.89v4.78c0,1.04-.84,1.89-1.89,1.89Z" fill="#13dd63"/><path d="m79.41,107.85c-3.51,0-6.87-.65-9.97-1.83l-8.76,15.18c5.72,2.6,12.06,4.05,18.74,4.05s12.91-1.43,18.59-3.98l-8.77-15.19c-3.06,1.14-6.36,1.77-9.82,1.77Z" fill="#13dd63"/><path d="m96.68,101.91l8.75,15.15c10.34-7.24,17.55-18.66,19.14-31.8h-17.6c-1.33,6.73-5.07,12.58-10.28,16.65Z" fill="#13dd63"/></svg>